<mxfile host="app.diagrams.net" agent="Mozilla/5.0 (Windows NT 10.0; Win64; x64) AppleWebKit/537.36 (KHTML, like Gecko) Chrome/136.0.0.0 Safari/537.36" version="26.2.14">
  <diagram name="Página-1" id="5ZOSEmpHYOH05uQj6xms">
    <mxGraphModel dx="1426" dy="751" grid="1" gridSize="10" guides="1" tooltips="1" connect="1" arrows="1" fold="1" page="1" pageScale="1" pageWidth="1200" pageHeight="1600" math="0" shadow="0">
      <root>
        <mxCell id="0" />
        <mxCell id="1" parent="0" />
        <mxCell id="LMUwY5xK7NSOeSj1MbUK-2" value="&lt;font style=&quot;font-size: 22px;&quot;&gt;PERSONA&lt;/font&gt;" style="rounded=0;whiteSpace=wrap;html=1;" vertex="1" parent="1">
          <mxGeometry x="240" y="160" width="680" height="40" as="geometry" />
        </mxCell>
        <mxCell id="LMUwY5xK7NSOeSj1MbUK-3" value="&lt;font style=&quot;font-size: 22px;&quot;&gt;nombre: String&lt;br&gt;apellidos: String&lt;br&gt;númeroDocumentoIdentidad: String&lt;br&gt;añoNacimiento: int&lt;/font&gt;" style="rounded=0;whiteSpace=wrap;html=1;align=left;" vertex="1" parent="1">
          <mxGeometry x="240" y="200" width="680" height="120" as="geometry" />
        </mxCell>
        <mxCell id="LMUwY5xK7NSOeSj1MbUK-4" value="&lt;font style=&quot;font-size: 18px;&quot;&gt;Persona(String nombre, String apellidos, String númeroDocumentoIdentidad, int añoNacimiento)&lt;br&gt;imprimir() : void&lt;/font&gt;" style="rounded=0;whiteSpace=wrap;html=1;align=left;" vertex="1" parent="1">
          <mxGeometry x="240" y="320" width="680" height="80" as="geometry" />
        </mxCell>
      </root>
    </mxGraphModel>
  </diagram>
</mxfile>
